<svg width="207" height="65" viewBox="0 0 207 65" fill="none" xmlns="http://www.w3.org/2000/svg">
<rect x="38.1104" y="27.4704" width="19.0594" height="19.0594" fill="#F6F6F6"/>
<rect x="-0.00830078" y="27.4704" width="19.0594" height="19.0594" fill="#F6F6F6"/>
<rect x="19.051" y="8.41113" width="19.0594" height="19.0594" fill="#F6F6F6"/>
<rect x="57.1699" y="8.41113" width="19.0594" height="19.0594" fill="#F6F6F6"/>
<rect x="173.987" y="41.0272" width="3.8681" height="3.8681" fill="white"/>
<path d="M83.7652 8.18238H99.0105C106.467 8.18238 110.776 12.0489 110.776 18.7326C110.776 22.9305 109.008 26.3552 105.86 28.1228C104.148 29.0618 101.883 29.5589 99.0657 29.5589H88.626V45.0251H83.7652V8.18238ZM98.0715 25.3057C100.557 25.3057 102.38 24.8638 103.54 23.9248C105.031 22.6543 105.86 20.8315 105.86 18.7878C105.86 16.4126 104.7 14.3689 102.877 13.3194C101.607 12.6565 100.281 12.4356 98.0715 12.4356H88.7365V25.3057H98.0715ZM129.798 41.4348C128.527 42.9814 128.14 43.3681 127.533 43.8652C126.041 45.0251 123.942 45.7432 121.567 45.7432C118.032 45.7432 115.105 44.3071 113.724 41.9319C113.006 40.6615 112.674 39.0596 112.674 37.2368V18.0697H117.148V35.5797C117.148 39.5015 119.137 41.6557 122.727 41.6557C126.98 41.6557 129.908 38.5072 129.908 33.6464V18.0697H134.382V45.0251H129.798V41.4348ZM137.33 8.18238H141.804V45.0251H137.33V8.18238ZM160.575 25.6924C160.409 23.98 160.299 23.4277 159.691 22.7096C158.752 21.6601 156.985 21.1077 154.444 21.1077C151.351 21.1077 149.141 22.6543 149.141 25.0295C149.141 25.8581 149.528 26.5209 150.135 26.9076C150.522 27.1837 151.019 27.3495 151.682 27.5704L155.714 28.6199C158.863 29.4484 161.238 30.1113 162.177 30.5532C164.773 31.8236 166.044 33.9226 166.044 36.7949C166.044 42.3738 161.569 46.0194 154.775 46.0194C147.484 46.0194 143.562 42.5395 143.562 36.2978H148.202C148.257 38.2863 148.478 39.1148 149.307 39.9434C150.412 41.0481 152.676 41.7662 155.272 41.7662C158.808 41.7662 161.183 40.1643 161.183 37.5682C161.183 36.1873 160.409 35.193 158.918 34.5854C158.421 34.3645 157.979 34.254 156.488 33.8674C155.604 33.5912 154.389 33.3702 153.339 33.0941C149.638 32.2103 147.926 31.5474 146.6 30.4979C145.109 29.3932 144.391 27.5152 144.391 25.5266C144.391 23.3724 145.219 21.4391 146.821 19.8925C148.754 17.9592 151.185 17.0755 154.775 17.0755C161.348 17.0755 165.325 20.3897 165.325 25.6924H160.575ZM167.915 18.0697H172.499V22.3782C174.488 18.843 176.421 17.5174 179.238 17.5174H181.061V22.3782H179.625C176.808 22.3782 174.819 23.4277 173.549 25.5819C172.941 26.6314 172.389 28.9513 172.389 30.4427V45.0251H167.915V18.0697Z" fill="white"/>
</svg>
